<mxfile host="app.diagrams.net" modified="2023-10-06T14:22:20.169Z" agent="Mozilla/5.0 (Windows NT 10.0; Win64; x64) AppleWebKit/537.36 (KHTML, like Gecko) Chrome/117.0.0.0 Safari/537.36 Edg/117.0.2045.47" etag="GnYbC1MscsvgremnSmYi" version="22.0.3" type="device">
  <diagram name="PÃ¡gina-1" id="KmClEHl5aooIomVq3C79">
    <mxGraphModel dx="1320" dy="750" grid="1" gridSize="10" guides="1" tooltips="1" connect="1" arrows="1" fold="1" page="1" pageScale="1" pageWidth="827" pageHeight="1169" math="0" shadow="0">
      <root>
        <mxCell id="0" />
        <mxCell id="1" parent="0" />
        <mxCell id="NEX1UO1RIKRLZD8zW22p-2" value="PARADIGMA_EVENTOS" style="swimlane;fontStyle=0;childLayout=stackLayout;horizontal=1;startSize=30;horizontalStack=0;resizeParent=1;resizeParentMax=0;resizeLast=0;collapsible=1;marginBottom=0;whiteSpace=wrap;html=1;" parent="1" vertex="1">
          <mxGeometry x="40" y="80" width="160" height="150" as="geometry" />
        </mxCell>
        <mxCell id="NEX1UO1RIKRLZD8zW22p-3" value="&lt;br&gt;" style="text;strokeColor=none;fillColor=none;align=left;verticalAlign=top;spacingLeft=4;spacingRight=4;overflow=hidden;points=[[0,0.5],[1,0.5]];portConstraint=eastwest;rotatable=0;whiteSpace=wrap;html=1;horizontal=1;" parent="NEX1UO1RIKRLZD8zW22p-2" vertex="1">
          <mxGeometry y="30" width="160" height="50" as="geometry" />
        </mxCell>
        <mxCell id="NEX1UO1RIKRLZD8zW22p-5" value="+ crearEventoCorporativo()&lt;br&gt;+ crearEventoPersonal()&lt;br&gt;+ mostrarResumen()" style="text;strokeColor=default;fillColor=none;align=left;verticalAlign=top;spacingLeft=4;spacingRight=4;overflow=hidden;points=[[0,0.5],[1,0.5]];portConstraint=eastwest;rotatable=0;whiteSpace=wrap;html=1;" parent="NEX1UO1RIKRLZD8zW22p-2" vertex="1">
          <mxGeometry y="80" width="160" height="70" as="geometry" />
        </mxCell>
        <mxCell id="NEX1UO1RIKRLZD8zW22p-7" value="&lt;i&gt;EVENTO&lt;/i&gt;" style="swimlane;fontStyle=0;childLayout=stackLayout;horizontal=1;startSize=30;horizontalStack=0;resizeParent=1;resizeParentMax=0;resizeLast=0;collapsible=1;marginBottom=0;whiteSpace=wrap;html=1;" parent="1" vertex="1">
          <mxGeometry x="320" y="80" width="160" height="160" as="geometry" />
        </mxCell>
        <mxCell id="NEX1UO1RIKRLZD8zW22p-8" value="- codigo: int&lt;br&gt;- descripcion: string&lt;br&gt;- fecha: fecha y hora&lt;br&gt;- personas: int" style="text;strokeColor=none;fillColor=none;align=left;verticalAlign=top;spacingLeft=4;spacingRight=4;overflow=hidden;points=[[0,0.5],[1,0.5]];portConstraint=eastwest;rotatable=0;whiteSpace=wrap;html=1;horizontal=1;" parent="NEX1UO1RIKRLZD8zW22p-7" vertex="1">
          <mxGeometry y="30" width="160" height="80" as="geometry" />
        </mxCell>
        <mxCell id="NEX1UO1RIKRLZD8zW22p-9" value="+ listarInfo()&lt;br&gt;+ montoEvento()&lt;br&gt;+ costoTarjeta()" style="text;strokeColor=default;fillColor=none;align=left;verticalAlign=top;spacingLeft=4;spacingRight=4;overflow=hidden;points=[[0,0.5],[1,0.5]];portConstraint=eastwest;rotatable=0;whiteSpace=wrap;html=1;" parent="NEX1UO1RIKRLZD8zW22p-7" vertex="1">
          <mxGeometry y="110" width="160" height="50" as="geometry" />
        </mxCell>
        <mxCell id="NEX1UO1RIKRLZD8zW22p-10" value="SERVICIO" style="swimlane;fontStyle=0;childLayout=stackLayout;horizontal=1;startSize=30;horizontalStack=0;resizeParent=1;resizeParentMax=0;resizeLast=0;collapsible=1;marginBottom=0;whiteSpace=wrap;html=1;" parent="1" vertex="1">
          <mxGeometry x="600" y="80" width="160" height="130" as="geometry" />
        </mxCell>
        <mxCell id="NEX1UO1RIKRLZD8zW22p-11" value="- codigo: int&lt;br&gt;- descripcion: string&lt;br&gt;- &lt;u&gt;monto base&lt;/u&gt;: float&lt;br&gt;" style="text;strokeColor=none;fillColor=none;align=left;verticalAlign=top;spacingLeft=4;spacingRight=4;overflow=hidden;points=[[0,0.5],[1,0.5]];portConstraint=eastwest;rotatable=0;whiteSpace=wrap;html=1;horizontal=1;" parent="NEX1UO1RIKRLZD8zW22p-10" vertex="1">
          <mxGeometry y="30" width="160" height="70" as="geometry" />
        </mxCell>
        <mxCell id="NEX1UO1RIKRLZD8zW22p-12" value="+ montoBase()" style="text;strokeColor=default;fillColor=none;align=left;verticalAlign=top;spacingLeft=4;spacingRight=4;overflow=hidden;points=[[0,0.5],[1,0.5]];portConstraint=eastwest;rotatable=0;whiteSpace=wrap;html=1;" parent="NEX1UO1RIKRLZD8zW22p-10" vertex="1">
          <mxGeometry y="100" width="160" height="30" as="geometry" />
        </mxCell>
        <mxCell id="NEX1UO1RIKRLZD8zW22p-13" value="PERSONAL" style="swimlane;fontStyle=0;childLayout=stackLayout;horizontal=1;startSize=30;horizontalStack=0;resizeParent=1;resizeParentMax=0;resizeLast=0;collapsible=1;marginBottom=0;whiteSpace=wrap;html=1;" parent="1" vertex="1">
          <mxGeometry x="189.68" y="390" width="200" height="120" as="geometry" />
        </mxCell>
        <mxCell id="NEX1UO1RIKRLZD8zW22p-14" value="- p_adicionales: int" style="text;strokeColor=none;fillColor=none;align=left;verticalAlign=top;spacingLeft=4;spacingRight=4;overflow=hidden;points=[[0,0.5],[1,0.5]];portConstraint=eastwest;rotatable=0;whiteSpace=wrap;html=1;horizontal=1;" parent="NEX1UO1RIKRLZD8zW22p-13" vertex="1">
          <mxGeometry y="30" width="200" height="50" as="geometry" />
        </mxCell>
        <mxCell id="NEX1UO1RIKRLZD8zW22p-15" value="+ montoEvento()" style="text;strokeColor=default;fillColor=none;align=left;verticalAlign=top;spacingLeft=4;spacingRight=4;overflow=hidden;points=[[0,0.5],[1,0.5]];portConstraint=eastwest;rotatable=0;whiteSpace=wrap;html=1;" parent="NEX1UO1RIKRLZD8zW22p-13" vertex="1">
          <mxGeometry y="80" width="200" height="40" as="geometry" />
        </mxCell>
        <mxCell id="NEX1UO1RIKRLZD8zW22p-16" value="CORPORATIVO" style="swimlane;fontStyle=0;childLayout=stackLayout;horizontal=1;startSize=30;horizontalStack=0;resizeParent=1;resizeParentMax=0;resizeLast=0;collapsible=1;marginBottom=0;whiteSpace=wrap;html=1;" parent="1" vertex="1">
          <mxGeometry x="440" y="390" width="200" height="140" as="geometry" />
        </mxCell>
        <mxCell id="NEX1UO1RIKRLZD8zW22p-17" value="- institucion: string&lt;br&gt;- beneficencia: bool" style="text;strokeColor=none;fillColor=none;align=left;verticalAlign=top;spacingLeft=4;spacingRight=4;overflow=hidden;points=[[0,0.5],[1,0.5]];portConstraint=eastwest;rotatable=0;whiteSpace=wrap;html=1;horizontal=1;" parent="NEX1UO1RIKRLZD8zW22p-16" vertex="1">
          <mxGeometry y="30" width="200" height="70" as="geometry" />
        </mxCell>
        <mxCell id="NEX1UO1RIKRLZD8zW22p-18" value="+ montoEvento()&lt;br&gt;+ esBenefico()" style="text;strokeColor=default;fillColor=none;align=left;verticalAlign=top;spacingLeft=4;spacingRight=4;overflow=hidden;points=[[0,0.5],[1,0.5]];portConstraint=eastwest;rotatable=0;whiteSpace=wrap;html=1;" parent="NEX1UO1RIKRLZD8zW22p-16" vertex="1">
          <mxGeometry y="100" width="200" height="40" as="geometry" />
        </mxCell>
        <mxCell id="NEX1UO1RIKRLZD8zW22p-28" value="&lt;font style=&quot;font-size: 10px;&quot;&gt;mostrarResumen(f: fecha)&lt;br&gt;&lt;br&gt;monto_total = 0&lt;br&gt;PARA CADA ev EN eventos HACER&lt;br&gt;&lt;span style=&quot;&quot;&gt;&lt;span style=&quot;&quot;&gt;&amp;nbsp;&amp;nbsp;&amp;nbsp;&amp;nbsp;&lt;/span&gt;&lt;/span&gt;SI(ev.f.getMes() = f.getMes() ANDev.f.getAnio() = f.getAnio()) ENT&lt;br&gt;&lt;span style=&quot;white-space: pre;&quot;&gt;&#x9;&lt;/span&gt;monto_total += ev.montoEvento()&lt;br&gt;&lt;span style=&quot;white-space: pre;&quot;&gt;&#x9;&lt;/span&gt;ev.listarInfo()&lt;br&gt;)&lt;/font&gt;" style="shape=note;whiteSpace=wrap;html=1;backgroundOutline=1;darkOpacity=0.05;align=left;verticalAlign=top;spacing=5;" parent="1" vertex="1">
          <mxGeometry x="40" y="540" width="340" height="140" as="geometry" />
        </mxCell>
        <mxCell id="MhzpaMvdu19zuyU5X7bM-1" value="" style="rhombus;whiteSpace=wrap;html=1;" parent="1" vertex="1">
          <mxGeometry x="480" y="100" width="30" height="20" as="geometry" />
        </mxCell>
        <mxCell id="MhzpaMvdu19zuyU5X7bM-2" value="" style="endArrow=none;html=1;rounded=0;entryX=0.004;entryY=0;entryDx=0;entryDy=0;entryPerimeter=0;exitX=1;exitY=0.5;exitDx=0;exitDy=0;" parent="1" source="MhzpaMvdu19zuyU5X7bM-1" target="NEX1UO1RIKRLZD8zW22p-11" edge="1">
          <mxGeometry width="50" height="50" relative="1" as="geometry">
            <mxPoint x="460" y="190" as="sourcePoint" />
            <mxPoint x="510" y="140" as="targetPoint" />
          </mxGeometry>
        </mxCell>
        <mxCell id="MhzpaMvdu19zuyU5X7bM-4" value="1 servicios&amp;nbsp;*" style="text;html=1;strokeColor=none;fillColor=none;align=center;verticalAlign=middle;whiteSpace=wrap;rounded=0;" parent="1" vertex="1">
          <mxGeometry x="491.5" y="80" width="97" height="20" as="geometry" />
        </mxCell>
        <mxCell id="MhzpaMvdu19zuyU5X7bM-5" value="" style="triangle;whiteSpace=wrap;html=1;rotation=-90;" parent="1" vertex="1">
          <mxGeometry x="389.68" y="235" width="20.63" height="30" as="geometry" />
        </mxCell>
        <mxCell id="MhzpaMvdu19zuyU5X7bM-6" value="" style="endArrow=none;html=1;rounded=0;entryX=0.5;entryY=0;entryDx=0;entryDy=0;exitX=0;exitY=0.5;exitDx=0;exitDy=0;" parent="1" source="MhzpaMvdu19zuyU5X7bM-5" target="NEX1UO1RIKRLZD8zW22p-16" edge="1">
          <mxGeometry width="50" height="50" relative="1" as="geometry">
            <mxPoint x="390" y="360" as="sourcePoint" />
            <mxPoint x="440" y="310" as="targetPoint" />
            <Array as="points">
              <mxPoint x="400" y="360" />
              <mxPoint x="540" y="360" />
            </Array>
          </mxGeometry>
        </mxCell>
        <mxCell id="MhzpaMvdu19zuyU5X7bM-7" value="" style="endArrow=none;html=1;rounded=0;exitX=1;exitY=0.5;exitDx=0;exitDy=0;entryX=0;entryY=0.5;entryDx=0;entryDy=0;" parent="1" source="NEX1UO1RIKRLZD8zW22p-14" target="MhzpaMvdu19zuyU5X7bM-5" edge="1">
          <mxGeometry width="50" height="50" relative="1" as="geometry">
            <mxPoint x="390" y="360" as="sourcePoint" />
            <mxPoint x="440" y="310" as="targetPoint" />
            <Array as="points">
              <mxPoint x="400" y="445" />
              <mxPoint x="400" y="360" />
            </Array>
          </mxGeometry>
        </mxCell>
        <mxCell id="0Eb_6rReF3Q6Nezjcn_s-2" value="" style="rhombus;whiteSpace=wrap;html=1;fillColor=#000000;" parent="1" vertex="1">
          <mxGeometry x="199" y="100" width="30" height="20" as="geometry" />
        </mxCell>
        <mxCell id="0Eb_6rReF3Q6Nezjcn_s-3" value="" style="endArrow=none;html=1;rounded=0;entryX=0.004;entryY=0;entryDx=0;entryDy=0;entryPerimeter=0;exitX=1;exitY=0.5;exitDx=0;exitDy=0;" parent="1" source="0Eb_6rReF3Q6Nezjcn_s-2" edge="1">
          <mxGeometry width="50" height="50" relative="1" as="geometry">
            <mxPoint x="179" y="190" as="sourcePoint" />
            <mxPoint x="320" y="110" as="targetPoint" />
          </mxGeometry>
        </mxCell>
        <mxCell id="0Eb_6rReF3Q6Nezjcn_s-4" value="0 eventos *" style="text;html=1;strokeColor=none;fillColor=none;align=center;verticalAlign=middle;whiteSpace=wrap;rounded=0;" parent="1" vertex="1">
          <mxGeometry x="210.5" y="80" width="97" height="20" as="geometry" />
        </mxCell>
        <mxCell id="0Eb_6rReF3Q6Nezjcn_s-5" value="&lt;i&gt;FECHA&lt;/i&gt;" style="swimlane;fontStyle=0;childLayout=stackLayout;horizontal=1;startSize=30;horizontalStack=0;resizeParent=1;resizeParentMax=0;resizeLast=0;collapsible=1;marginBottom=0;whiteSpace=wrap;html=1;" parent="1" vertex="1">
          <mxGeometry x="40" y="280" width="100" height="170" as="geometry">
            <mxRectangle x="40" y="280" width="80" height="30" as="alternateBounds" />
          </mxGeometry>
        </mxCell>
        <mxCell id="0Eb_6rReF3Q6Nezjcn_s-6" value="- dia: int&lt;br&gt;- mes: int&lt;br&gt;- aÃ±o: int" style="text;strokeColor=none;fillColor=none;align=left;verticalAlign=top;spacingLeft=4;spacingRight=4;overflow=hidden;points=[[0,0.5],[1,0.5]];portConstraint=eastwest;rotatable=0;whiteSpace=wrap;html=1;horizontal=1;" parent="0Eb_6rReF3Q6Nezjcn_s-5" vertex="1">
          <mxGeometry y="30" width="100" height="60" as="geometry" />
        </mxCell>
        <mxCell id="0Eb_6rReF3Q6Nezjcn_s-7" value="+ getDia()&lt;br&gt;+ getMes()&lt;br&gt;+ getAnio()&lt;br&gt;+ getFecha()" style="text;strokeColor=default;fillColor=none;align=left;verticalAlign=top;spacingLeft=4;spacingRight=4;overflow=hidden;points=[[0,0.5],[1,0.5]];portConstraint=eastwest;rotatable=0;whiteSpace=wrap;html=1;" parent="0Eb_6rReF3Q6Nezjcn_s-5" vertex="1">
          <mxGeometry y="90" width="100" height="80" as="geometry" />
        </mxCell>
        <mxCell id="bZPUp93jmDXLLoG-zxcL-1" value="" style="endArrow=none;html=1;rounded=0;entryX=0.482;entryY=1.005;entryDx=0;entryDy=0;exitX=0.355;exitY=-0.003;exitDx=0;exitDy=0;exitPerimeter=0;entryPerimeter=0;" edge="1" parent="1" source="NEX1UO1RIKRLZD8zW22p-28" target="NEX1UO1RIKRLZD8zW22p-5">
          <mxGeometry width="50" height="50" relative="1" as="geometry">
            <mxPoint x="180" y="350" as="sourcePoint" />
            <mxPoint x="330" y="120" as="targetPoint" />
            <Array as="points">
              <mxPoint x="160" y="320" />
              <mxPoint x="160" y="250" />
            </Array>
          </mxGeometry>
        </mxCell>
        <mxCell id="bZPUp93jmDXLLoG-zxcL-3" value="&lt;font style=&quot;&quot;&gt;montoEvento()&lt;br&gt;&lt;br&gt;&lt;div style=&quot;&quot;&gt;&lt;span style=&quot;font-size: 10px; background-color: initial;&quot;&gt;monto = costoTarjeta();&lt;/span&gt;&lt;br&gt;&lt;/div&gt;&lt;div style=&quot;&quot;&gt;&lt;span style=&quot;font-size: 10px;&quot;&gt;monto = (monto x personas) + &lt;span style=&quot;white-space: pre;&quot;&gt;&#x9;&lt;/span&gt;((monto&amp;nbsp;&lt;/span&gt;&lt;span style=&quot;font-size: 10px; background-color: initial;&quot;&gt;x 0.6) * p_adicionales)&lt;/span&gt;&lt;/div&gt;&lt;div style=&quot;&quot;&gt;&lt;span style=&quot;font-size: 10px; background-color: initial;&quot;&gt;&lt;br&gt;&lt;/span&gt;&lt;/div&gt;&lt;div style=&quot;&quot;&gt;&lt;span style=&quot;font-size: 10px; background-color: initial;&quot;&gt;RETORNA monto&lt;/span&gt;&lt;/div&gt;&lt;/font&gt;" style="shape=note;whiteSpace=wrap;html=1;backgroundOutline=1;darkOpacity=0.05;align=left;verticalAlign=top;spacing=5;" vertex="1" parent="1">
          <mxGeometry x="430" y="560" width="170" height="180" as="geometry" />
        </mxCell>
        <mxCell id="bZPUp93jmDXLLoG-zxcL-4" value="&lt;font style=&quot;&quot;&gt;montoEvento()&lt;br&gt;&lt;br&gt;&lt;div style=&quot;&quot;&gt;&lt;span style=&quot;font-size: 10px; background-color: initial;&quot;&gt;monto = costoTarjeta();&lt;/span&gt;&lt;br&gt;&lt;/div&gt;&lt;div style=&quot;&quot;&gt;&lt;span style=&quot;font-size: 10px;&quot;&gt;SI(personas &amp;lt; 100) ENT&lt;/span&gt;&lt;span style=&quot;font-size: 10px; background-color: initial; white-space: pre;&quot;&gt;&#x9;&lt;/span&gt;&lt;/div&gt;&lt;div style=&quot;&quot;&gt;&lt;span style=&quot;font-size: 10px;&quot;&gt;&lt;span style=&quot;&quot;&gt;&lt;span style=&quot;white-space: pre;&quot;&gt;&amp;nbsp;&amp;nbsp;&amp;nbsp;&amp;nbsp;&lt;/span&gt;&lt;span style=&quot;white-space: pre;&quot;&gt;&amp;nbsp;&amp;nbsp;&amp;nbsp;&amp;nbsp;&lt;/span&gt;&lt;/span&gt;monto = monto * 100;&lt;/span&gt;&lt;/div&gt;&lt;div style=&quot;&quot;&gt;&lt;span style=&quot;font-size: 10px; white-space: pre;&quot;&gt;SINO&lt;/span&gt;&lt;/div&gt;&lt;div style=&quot;&quot;&gt;&lt;span style=&quot;font-size: 10px;&quot;&gt;&lt;span style=&quot;&quot;&gt;&lt;span style=&quot;white-space: pre;&quot;&gt;&amp;nbsp;&amp;nbsp;&amp;nbsp;&amp;nbsp;&lt;/span&gt;&lt;span style=&quot;white-space: pre;&quot;&gt;&amp;nbsp;&amp;nbsp;&amp;nbsp;&amp;nbsp;&lt;/span&gt;&lt;/span&gt;monto = (monto * personas);&lt;/span&gt;&lt;/div&gt;&lt;div style=&quot;&quot;&gt;&lt;span style=&quot;font-size: 10px;&quot;&gt;&lt;span style=&quot;white-space: pre;&quot;&gt;SI&lt;/span&gt;(esBenefico() == TRUE) ENT&lt;/span&gt;&lt;/div&gt;&lt;div style=&quot;&quot;&gt;&lt;span style=&quot;font-size: 10px;&quot;&gt;&lt;span style=&quot;&quot;&gt;&lt;span style=&quot;white-space: pre;&quot;&gt;&amp;nbsp;&amp;nbsp;&amp;nbsp;&amp;nbsp;&lt;/span&gt;&lt;span style=&quot;white-space: pre;&quot;&gt;&amp;nbsp;&amp;nbsp;&amp;nbsp;&amp;nbsp;&lt;/span&gt;&lt;/span&gt;monto = monto * 0.85;&lt;/span&gt;&lt;/div&gt;&lt;div style=&quot;&quot;&gt;&lt;span style=&quot;font-size: 10px;&quot;&gt;&lt;span style=&quot;white-space: pre;&quot;&gt;RETORNA &lt;/span&gt;monto;&lt;/span&gt;&lt;/div&gt;&lt;/font&gt;" style="shape=note;whiteSpace=wrap;html=1;backgroundOutline=1;darkOpacity=0.05;align=left;verticalAlign=top;spacing=5;" vertex="1" parent="1">
          <mxGeometry x="630" y="560" width="170" height="180" as="geometry" />
        </mxCell>
        <mxCell id="bZPUp93jmDXLLoG-zxcL-5" value="" style="endArrow=none;html=1;rounded=0;entryX=0;entryY=0;entryDx=0;entryDy=0;entryPerimeter=0;exitX=1;exitY=0.5;exitDx=0;exitDy=0;" edge="1" parent="1" source="NEX1UO1RIKRLZD8zW22p-15" target="bZPUp93jmDXLLoG-zxcL-3">
          <mxGeometry width="50" height="50" relative="1" as="geometry">
            <mxPoint x="460" y="610" as="sourcePoint" />
            <mxPoint x="510" y="560" as="targetPoint" />
            <Array as="points">
              <mxPoint x="410" y="490" />
            </Array>
          </mxGeometry>
        </mxCell>
        <mxCell id="bZPUp93jmDXLLoG-zxcL-6" value="" style="endArrow=none;html=1;rounded=0;entryX=1;entryY=0.5;entryDx=0;entryDy=0;exitX=0;exitY=0;exitDx=70;exitDy=0;exitPerimeter=0;" edge="1" parent="1" source="bZPUp93jmDXLLoG-zxcL-4" target="NEX1UO1RIKRLZD8zW22p-18">
          <mxGeometry width="50" height="50" relative="1" as="geometry">
            <mxPoint x="460" y="610" as="sourcePoint" />
            <mxPoint x="510" y="560" as="targetPoint" />
          </mxGeometry>
        </mxCell>
        <mxCell id="bZPUp93jmDXLLoG-zxcL-7" value="&lt;font style=&quot;&quot;&gt;costoTarjeta()&lt;br&gt;&lt;br&gt;&lt;div style=&quot;&quot;&gt;&lt;span style=&quot;font-size: 10px; background-color: initial;&quot;&gt;tarjeta = 0&lt;/span&gt;&lt;br&gt;&lt;/div&gt;&lt;div style=&quot;&quot;&gt;&lt;span style=&quot;font-size: 10px;&quot;&gt;PARA CADA s EN servicios HACER&lt;br&gt;&lt;/span&gt;&lt;/div&gt;&lt;div style=&quot;&quot;&gt;&lt;span style=&quot;font-size: 10px;&quot;&gt;&lt;span style=&quot;white-space: pre;&quot;&gt;&#x9;&lt;/span&gt;tarjeta = tarjeta + s.montoBase()&lt;br&gt;&lt;/span&gt;&lt;/div&gt;&lt;div style=&quot;&quot;&gt;&lt;span style=&quot;font-size: 10px;&quot;&gt;RETORNA tarjeta * 1.1&lt;/span&gt;&lt;/div&gt;&lt;/font&gt;" style="shape=note;whiteSpace=wrap;html=1;backgroundOutline=1;darkOpacity=0.05;align=left;verticalAlign=top;spacing=5;" vertex="1" parent="1">
          <mxGeometry x="600" y="250" width="210" height="130" as="geometry" />
        </mxCell>
        <mxCell id="bZPUp93jmDXLLoG-zxcL-8" value="" style="endArrow=none;html=1;rounded=0;entryX=0;entryY=0;entryDx=0;entryDy=0;entryPerimeter=0;exitX=1;exitY=0.5;exitDx=0;exitDy=0;" edge="1" parent="1" source="NEX1UO1RIKRLZD8zW22p-9" target="bZPUp93jmDXLLoG-zxcL-7">
          <mxGeometry width="50" height="50" relative="1" as="geometry">
            <mxPoint x="400" y="220" as="sourcePoint" />
            <mxPoint x="450" y="170" as="targetPoint" />
          </mxGeometry>
        </mxCell>
        <mxCell id="bZPUp93jmDXLLoG-zxcL-10" value="&lt;font style=&quot;&quot;&gt;ANOTACIONES&lt;br&gt;&lt;div style=&quot;&quot;&gt;&lt;ul&gt;&lt;li&gt;La declaracion de funcion virtual = 0 indica que sera clase abstracta Â¿xq?, solo va virtual aqui no en cpp&lt;br&gt;&lt;/li&gt;&lt;li&gt;Las clases que heredan de una clase abstracta deben obligadamente implementar dicho metodo virtual para que funcionen: ej void Corporativo::absFn(){}&lt;br&gt;&lt;/li&gt;&lt;li&gt;&lt;span style=&quot;background-color: initial;&quot;&gt;Todos los metodos que vayan a tener comportamiento diferente en clases hijas, son metodos virtuales en sus padres&lt;br&gt;&lt;/span&gt;&lt;/li&gt;&lt;li&gt;Aquellas relaciones de Agregacion o uso de punteros y reserva de memoria dinamica deben ser liberados al finalizar el programa, o sea debemos eliminar (&lt;b&gt;delete&lt;/b&gt;&amp;nbsp;&lt;b&gt;ptr)&amp;nbsp;&lt;/b&gt;aquellos punteros que se les asigno memoria dinamica ya se de forma manual o en sus destructores&lt;/li&gt;&lt;/ul&gt;&lt;/div&gt;&lt;/font&gt;" style="shape=note;whiteSpace=wrap;html=1;backgroundOutline=1;darkOpacity=0.05;align=left;verticalAlign=top;spacing=5;" vertex="1" parent="1">
          <mxGeometry x="40.5" y="800" width="759.5" height="180" as="geometry" />
        </mxCell>
      </root>
    </mxGraphModel>
  </diagram>
</mxfile>
